<svg width="64" height="64" viewBox="0 0 64 64" fill="none" xmlns="http://www.w3.org/2000/svg">
<g clip-path="url(#clip0_734_8192)">
<path d="M24.2339 63.0226C18.5081 61.6057 13.5833 58.772 9.42993 54.6395C5.69186 50.9203 3.05148 46.5517 1.50879 41.5337C-0.389915 35.394 -0.538251 29.1657 1.30112 23.0261C4.26784 12.9605 10.7056 5.9353 20.4661 1.97992C21.3251 1.64551 22.2075 1.36957 23.0912 1.09322C23.6116 0.930491 24.1324 0.767622 24.6492 0.59259C24.664 0.636867 24.6715 0.673764 24.6789 0.710661C24.6863 0.747558 24.6937 0.784455 24.7085 0.828732C18.2411 6.14192 18.9531 14.4364 23.6405 18.9231C28.2389 23.3212 35.4184 23.3212 40.0168 19.0707C44.8526 14.584 45.4756 5.25639 38.9191 0.622108C39.1276 0.678171 39.3361 0.733169 39.5444 0.788113C40.4327 1.02246 41.3174 1.25583 42.1825 1.56667C51.0827 4.78411 57.5501 10.6581 61.2585 19.2773C64.8483 27.5127 64.9076 35.9548 61.4662 44.2788C58.1731 52.2781 52.4177 58.0045 44.4669 61.4581C42.8649 62.1665 41.2628 62.6979 39.6608 63.1111L39.0378 62.9635L45.9799 47.7324L36.1898 59.0081L31.977 26.7748L27.4379 59.0081L18.0334 47.7324L24.7382 62.9635L24.3229 63.0521C24.2932 63.0226 24.2635 63.0226 24.2339 63.0226Z" fill="#B654FC"/>
<path d="M32.6594 16.4731C33.045 13.787 35.1811 11.6322 37.9105 11.2485C38.5928 11.1304 38.5928 10.1268 37.9105 10.0383C35.2107 9.65453 33.045 7.52925 32.6594 4.81362C32.5704 4.1052 31.532 4.1052 31.443 4.81362C31.0573 7.49973 28.9213 9.65453 26.1919 10.0383C25.4799 10.1268 25.4799 11.1599 26.1919 11.2485C28.8916 11.6322 31.0573 13.7575 31.443 16.4731C31.532 17.1815 32.5704 17.1815 32.6594 16.4731Z" fill="#B654FC"/>
</g>
<defs>
<clipPath id="clip0_734_8192">
<rect width="64" height="64" fill="white"/>
</clipPath>
</defs>
</svg>
