<svg width="741" height="181" viewBox="0 0 741 181" fill="none" xmlns="http://www.w3.org/2000/svg">
<path d="M70.051 178.236C53.5 174.229 39.2643 166.215 27.2584 154.527C16.453 144.009 8.82069 131.654 4.36133 117.462C-1.1271 100.099 -1.55588 82.4844 3.76104 65.1206C12.3367 36.654 30.9459 16.7858 59.1599 5.59948C61.6427 4.65373 64.1935 3.87333 66.7481 3.09176C68.2523 2.63155 69.7579 2.17094 71.2516 1.67593C71.2945 1.80115 71.3159 1.9055 71.3374 2.00985C71.3588 2.1142 71.3802 2.21854 71.4231 2.34376C52.7282 17.3701 54.7863 40.8279 68.3359 53.5169C81.6282 65.9554 102.381 65.9554 115.674 53.9343C129.652 41.2453 131.453 14.8657 112.501 1.75941C113.103 1.91796 113.706 2.0735 114.308 2.22889C116.876 2.89164 119.433 3.55164 121.934 4.43076C147.661 13.5301 166.356 30.1425 177.075 54.5186C187.452 77.8095 187.624 101.685 177.676 125.226C168.157 147.849 151.52 164.044 128.537 173.811C123.906 175.815 119.275 177.317 114.645 178.486L112.844 178.069L132.911 134.993L104.611 166.882L92.4335 75.7225L79.3128 166.882L52.1279 134.993L71.5089 178.069L70.3083 178.319C70.2225 178.236 70.1368 178.236 70.051 178.236Z" fill="#F3F0EE"/>
<path d="M94.4059 46.5881C95.5208 38.9914 101.695 32.8974 109.585 31.8121C111.557 31.4782 111.557 28.6399 109.585 28.3895C101.781 27.3042 95.5208 21.2937 94.4059 13.6135C94.1487 11.61 91.1472 11.61 90.8899 13.6135C89.7751 21.2102 83.6006 27.3042 75.711 28.3895C73.6528 28.6399 73.6528 31.5617 75.711 31.8121C83.5148 32.8974 89.7751 38.9079 90.8899 46.5881C91.1472 48.5916 94.1487 48.5916 94.4059 46.5881Z" fill="#F3F0EE"/>
<g clip-path="url(#clip0_113_23)">
<path fill-rule="evenodd" clip-rule="evenodd" d="M486.46 121.531L486.461 121.508V121.492C486.469 114.814 486.48 106.335 486.48 98.96H486.51V46.42C486.51 45.42 487.31 44.63 488.3 44.63C491.551 44.6525 494.919 44.6276 498.333 44.6024C507.068 44.5378 516.104 44.471 524.25 45.19C542.37 46.79 554.95 58.99 558.36 76.93C560.49 88.17 560.09 99.31 555.54 109.97C550.08 122.76 540.26 130.47 526.58 132.35C520.998 133.119 515.307 133.124 509.623 133.128C507.395 133.13 505.169 133.132 502.95 133.18L488.24 133.23C487.25 133.23 486.45 132.44 486.45 131.45C486.45 129.436 486.455 125.864 486.46 121.531ZM518.33 120.39C529.06 119.72 537.17 114.87 541.37 104.64L541.38 104.62C544.61 96.72 544.92 88.44 543.44 80.15C541.08 66.93 533.7 59.58 520.44 57.68C516.4 57.1 507.33 57.16 503.49 57.22C502.5 57.24 501.73 58.04 501.73 59.02C501.787 65.6285 501.773 73.3984 501.76 80.5643L501.76 80.6121C501.755 83.5136 501.75 86.3153 501.75 88.9V118.7C501.75 119.69 502.55 120.49 503.54 120.49C504.983 120.484 506.535 120.498 508.117 120.512H508.12C511.659 120.544 515.352 120.577 518.33 120.39Z" fill="#F3F0EE"/>
<path d="M741 93.52L740.999 93.54H740C740 93.54 739.92 95.09 739.83 95.87C739.14 102.03 737.84 108.03 734.89 113.54C732.92 117.23 730.34 120.39 726.41 122.16C719.04 125.5 713.29 121.91 713.27 113.95C713.257 109.279 713.261 104.146 713.265 98.9245V98.9221C713.27 91.9142 713.275 84.7476 713.24 78.33C713.23 77.34 714.04 76.54 715.03 76.54L729.62 76.56C730.61 76.56 731.41 75.76 731.41 74.77V65.43C731.41 64.44 730.61 63.64 729.62 63.64H715.06C714.07 63.64 713.27 62.84 713.27 61.85C713.27 59.6478 713.273 56.5541 713.276 53.6055L713.276 53.5376V53.4651C713.278 50.7747 713.28 48.2192 713.28 46.59C713.28 45.6 712.48 44.8 711.49 44.8H700.94C699.95 44.8 699.15 45.6 699.15 46.59L699.18 61.84C699.18 62.83 698.38 63.63 697.39 63.63H689.12C688.13 63.63 687.33 64.42 687.33 65.41L687.31 74.71C687.3 75.7 688.11 76.5 689.1 76.5C690.629 76.4938 692.659 76.4993 694.499 76.5043L694.5 76.5043C695.597 76.5073 696.626 76.51 697.44 76.51C698.43 76.52 699.21 77.32 699.2 78.3V116.01C699.22 118.44 699.46 120.92 700.02 123.28C701.46 129.36 705.21 133.24 711.49 134.44C720.13 136.09 728.91 131.8 733.79 123.45C739.007 114.536 740.528 103.634 740.999 93.54H741.01L741 93.52Z" fill="#F3F0EE"/>
<path d="M640.53 110.95C640.32 110.18 639.61 109.65 638.81 109.65V109.66H629.33C628.23 109.66 627.39 110.65 627.56 111.74C628.47 117.46 630.64 123.18 635.01 127.07C643.34 134.47 653.35 135.69 663.89 134.3C669.96 133.5 675.42 131.13 679.91 126.79C691.39 115.66 687.62 98.89 672.4 94.53C668.748 93.4817 664.927 93.0062 661.108 92.5308C659.353 92.3123 657.598 92.0939 655.86 91.82C654.823 91.6551 653.78 91.5174 652.738 91.3797C650.492 91.0832 648.249 90.7868 646.07 90.22C642.05 89.17 640.49 86.52 641.51 82.49C641.94 80.76 643 78.93 644.3 77.72C650.14 72.31 663.06 72.89 668.46 78.72C669.51 79.85 670.31 81.27 671.04 82.65C671.73 83.85 672.21 85.04 672.52 85.88C672.78 86.59 673.45 87.05 674.2 87.05H683.35C684.47 87.05 685.32 86.02 685.11 84.92C683.68 77.28 679.84 70 672.69 66.36C663.08 61.47 653.08 61.17 643.09 64.94C635.6 67.76 630.54 73.13 628.95 81.15C627.03 90.85 629.83 98.63 640.44 101.04C643.621 101.767 646.869 102.191 650.119 102.615C651.876 102.844 653.633 103.073 655.38 103.35C656.491 103.526 657.61 103.683 658.729 103.84C661.991 104.297 665.258 104.754 668.37 105.7C673.13 107.14 674.98 111.81 672.85 116.14C672.03 117.81 670.52 119.35 668.96 120.42C665.15 123.02 660.74 123.44 656.24 123.2C646.88 122.6 642.44 118.18 640.53 110.95Z" fill="#F3F0EE"/>
<path d="M621.1 133.29C622.09 133.29 622.89 132.49 622.89 131.5H622.9V65.33C622.91 64.33 622.1 63.53 621.11 63.53H610.69C609.71 63.53 608.91 64.32 608.91 65.31V118.82C608.91 119.8 608.11 120.59 607.13 120.59H581.69C580.7 120.59 579.9 119.8 579.9 118.81L579.9 115.303C579.899 104.113 579.896 78.0139 579.94 65.32C579.94 64.33 579.14 63.54 578.15 63.54H567.44C566.45 63.54 565.65 64.33 565.65 65.32C565.71 85.61 565.71 111.06 565.65 131.51C565.65 132.5 566.45 133.29 567.44 133.29H621.1Z" fill="#F3F0EE"/>
<path d="M445.51 152.43C442.14 152.39 438.78 152.37 435.41 152.37C432.04 152.37 428.57 152.39 425.15 152.43H424.76C423.95 152.43 423.18 152.39 422.65 151.84C422.19 151.37 422.02 150.64 422.06 149.42C422.06 149.42 422.11 144.47 422.08 141.92C422.05 140.99 422.24 140.34 422.68 139.9C423.25 139.31 424.1 139.24 424.69 139.24L437.2 139.28L437.209 139.28C438.711 139.26 438.982 139.256 439.75 137.35C441.35 132.2 441.31 128.5 439.6 124.19C433.83 109.65 415.95 63.4999 415.95 63.4999L428.67 63.4699C430.44 63.4699 431.45 64.1899 432.05 65.8899C434.866 73.8767 439.661 86.8908 443.531 97.3956L443.537 97.4116C445.974 104.025 448.043 109.641 449.02 112.38C449.893 109.887 451.651 105.008 453.747 99.1913L453.747 99.1891L453.749 99.1837C457.731 88.1331 462.931 73.7034 465.59 65.8299C466.16 64.1399 467.06 63.4599 468.7 63.4599L481.69 63.4999C481.69 63.4999 456.24 130.65 449.14 149.79C448.63 151.16 447.85 152.42 445.6 152.42H445.52L445.51 152.43Z" fill="#F3F0EE"/>
<path d="M411.64 129.84V98.35L411.63 98.36C411.63 95.9787 411.628 92.6631 411.625 88.828V88.8111C411.615 75.3653 411.6 55.5452 411.67 47.2C411.69 45.22 411.06 44.56 409.11 44.64C406.02 44.63 403.23 44.63 400.12 44.64C398.33 44.65 397.58 45.16 397.58 47.06C397.63 68.76 397.62 109.43 397.58 131.13C397.58 132.81 398.2 133.35 399.8 133.31C401.732 133.254 403.67 133.267 405.605 133.279C406.434 133.285 407.262 133.29 408.09 133.29C410.457 133.283 411.64 132.133 411.64 129.84Z" fill="#F3F0EE"/>
<path d="M334.66 65.34C334.66 64.35 335.47 63.55 336.46 63.55H390.12C391.11 63.55 391.91 64.34 391.91 65.33C391.85 85.78 391.85 111.23 391.91 131.52C391.91 132.51 391.11 133.3 390.12 133.3H379.41C378.42 133.3 377.62 132.51 377.62 131.52C377.665 118.824 377.662 92.719 377.661 81.5318L377.66 78.03C377.66 77.04 376.86 76.25 375.87 76.25H350.43C349.45 76.25 348.65 77.04 348.65 78.02V131.53C348.65 132.52 347.85 133.31 346.87 133.31H336.45C335.46 133.31 334.65 132.51 334.66 131.51V65.34Z" fill="#F3F0EE"/>
<path fill-rule="evenodd" clip-rule="evenodd" d="M241 89.3901C240.91 114.28 260.35 133.9 285.14 133.94C310.23 133.98 329.49 114.73 329.54 89.5401C329.59 64.9201 310.22 45.5401 285.51 45.4801C260.66 45.4201 241.09 64.7401 241 89.3901ZM285.84 119.75C269.1 119.85 256.04 106.68 255.97 89.6101C255.9 73.0501 268.95 59.6801 285.28 59.6101C301.45 59.5401 314.69 72.9501 314.79 89.5101C314.89 105.89 301.71 119.65 285.84 119.75Z" fill="#F3F0EE"/>
</g>
<defs>
<clipPath id="clip0_113_23">
<rect width="500" height="107.86" fill="white" transform="translate(241 44.57)"/>
</clipPath>
</defs>
</svg>
