<svg width="109" height="24" viewBox="0 0 109 24" fill="none" xmlns="http://www.w3.org/2000/svg">
<g clip-path="url(#clip0_7611_109)">
<path fill-rule="evenodd" clip-rule="evenodd" d="M53.189 16.741L53.1891 16.7362V16.7327C53.1909 15.2819 53.1933 13.44 53.1933 11.8378H53.1998V0.424159C53.1998 0.206922 53.3728 0.0353042 53.5869 0.0353042C54.2899 0.0401876 55.0181 0.0347795 55.7563 0.0292977C57.6452 0.015271 59.5989 0.00076208 61.3604 0.156957C65.2786 0.504537 67.9988 3.15484 68.7362 7.05208C69.1967 9.49383 69.1103 11.9139 68.1264 14.2296C66.9458 17.0081 64.8223 18.683 61.8643 19.0914C60.6572 19.2584 59.4267 19.2594 58.1976 19.2605C57.7159 19.2609 57.2344 19.2613 56.7547 19.2717L53.5739 19.2826C53.3598 19.2826 53.1868 19.1109 53.1868 18.8959C53.1868 18.4584 53.1878 17.6824 53.189 16.741ZM60.0803 16.4932C62.4005 16.3477 64.1542 15.2941 65.0624 13.0717L65.0645 13.0674C65.763 11.3512 65.83 9.55248 65.51 7.75158C64.9997 4.8797 63.4039 3.28301 60.5366 2.87025C59.663 2.74426 57.7018 2.75729 56.8714 2.77032C56.6574 2.77467 56.4909 2.94846 56.4909 3.16135C56.5032 4.59696 56.5002 6.28487 56.4974 7.84157L56.4974 7.85195C56.4963 8.48227 56.4952 9.09091 56.4952 9.65241V16.1261C56.4952 16.3412 56.6682 16.5149 56.8823 16.5149C57.1943 16.5136 57.5298 16.5166 57.872 16.5197H57.8725C58.6377 16.5266 59.4364 16.5337 60.0803 16.4932Z" fill="#F3F0EE"/>
<path d="M108.229 10.656L108.229 10.6604H108.013C108.013 10.6604 107.996 10.9971 107.976 11.1666C107.827 12.5047 107.546 13.8082 106.908 15.0051C106.482 15.8067 105.924 16.4932 105.074 16.8777C103.481 17.6033 102.237 16.8234 102.233 15.0942C102.23 14.0796 102.231 12.9644 102.232 11.8301V11.8296C102.233 10.3072 102.234 8.75034 102.226 7.35621C102.224 7.14114 102.399 6.96735 102.613 6.96735L105.768 6.9717C105.982 6.9717 106.155 6.79791 106.155 6.58284V4.55385C106.155 4.33878 105.982 4.16499 105.768 4.16499H102.62C102.406 4.16499 102.233 3.9912 102.233 3.77613C102.233 3.29772 102.233 2.62566 102.234 1.98512L102.234 1.97036V1.95462C102.235 1.37015 102.235 0.815005 102.235 0.46109C102.235 0.246025 102.062 0.0722346 101.848 0.0722346H99.5667C99.3527 0.0722346 99.1797 0.246025 99.1797 0.46109L99.1862 3.77396C99.1862 3.98903 99.0132 4.16282 98.7991 4.16282H97.0109C96.7968 4.16282 96.6238 4.33444 96.6238 4.5495L96.6195 6.56981C96.6173 6.78487 96.7925 6.95866 97.0065 6.95866C97.337 6.9573 97.7761 6.9585 98.1739 6.95958L98.1742 6.95959C98.4114 6.96023 98.6339 6.96084 98.8099 6.96084C99.024 6.96301 99.1927 7.1368 99.1905 7.34969V15.5417C99.1948 16.0696 99.2467 16.6084 99.3678 17.121C99.6792 18.4418 100.49 19.2847 101.848 19.5454C103.716 19.9038 105.615 18.9719 106.67 17.158C107.798 15.2215 108.127 12.8533 108.229 10.6604H108.231L108.229 10.656Z" fill="#F3F0EE"/>
<path d="M86.5041 14.4425C86.4587 14.2752 86.3051 14.1601 86.1322 14.1601V14.1623H84.0823C83.8444 14.1623 83.6628 14.3773 83.6995 14.6141C83.8963 15.8567 84.3655 17.0993 85.3105 17.9444C87.1117 19.5519 89.2762 19.817 91.5553 19.515C92.8678 19.3412 94.0485 18.8264 95.0193 17.8835C97.5017 15.4657 96.6865 11.8226 93.3954 10.8755C92.6058 10.6477 91.7795 10.5444 90.9536 10.4411C90.5741 10.3937 90.1947 10.3462 89.8189 10.2867C89.5947 10.2509 89.3692 10.221 89.1437 10.1911C88.6582 10.1267 88.1731 10.0623 87.702 9.93916C86.8328 9.71106 86.4954 9.13538 86.716 8.25992C86.809 7.8841 87.0382 7.48655 87.3193 7.22369C88.5821 6.04844 91.3758 6.17444 92.5435 7.44093C92.7705 7.68641 92.9435 7.99489 93.1014 8.29468C93.2506 8.55536 93.3543 8.81387 93.4214 8.99635C93.4776 9.15059 93.6225 9.25052 93.7847 9.25052H95.7632C96.0054 9.25052 96.1892 9.02676 96.1438 8.7878C95.8345 7.12811 95.0042 5.54662 93.4581 4.75588C91.3801 3.69358 89.2178 3.62841 87.0576 4.4474C85.438 5.06001 84.3439 6.22657 84.0001 7.96882C83.5849 10.076 84.1904 11.7661 86.4846 12.2897C87.1724 12.4476 87.8748 12.5396 88.5775 12.6317C88.9574 12.6815 89.3373 12.7313 89.7151 12.7915C89.9554 12.8298 90.1973 12.8638 90.4393 12.8979C91.1445 12.9971 91.8511 13.0966 92.524 13.302C93.5533 13.6148 93.9533 14.6293 93.4927 15.57C93.3154 15.9327 92.9889 16.2673 92.6516 16.4997C91.8277 17.0646 90.8742 17.1558 89.9011 17.1037C87.8772 16.9733 86.9171 16.0131 86.5041 14.4425Z" fill="#F3F0EE"/>
<path d="M82.3027 19.2956C82.5167 19.2956 82.6897 19.1218 82.6897 18.9067H82.6919V4.53212C82.694 4.31488 82.5189 4.14109 82.3048 4.14109H80.0517C79.8398 4.14109 79.6668 4.31271 79.6668 4.52778V16.1522C79.6668 16.3651 79.4938 16.5367 79.2819 16.5367H73.7809C73.5668 16.5367 73.3938 16.365 73.3938 16.15L73.3938 15.3882C73.3935 12.9573 73.3929 7.28754 73.4025 4.52995C73.4025 4.31488 73.2295 4.14327 73.0154 4.14327H70.6996C70.4855 4.14327 70.3125 4.31488 70.3125 4.52995C70.3255 8.9377 70.3255 14.4664 70.3125 18.9089C70.3125 19.124 70.4855 19.2956 70.6996 19.2956H82.3027Z" fill="#F3F0EE"/>
<path d="M44.3342 23.4535C43.6055 23.4448 42.879 23.4404 42.1503 23.4404C41.4216 23.4404 40.6712 23.4448 39.9317 23.4535H39.8474C39.6722 23.4535 39.5057 23.4448 39.3911 23.3253C39.2917 23.2232 39.2549 23.0646 39.2635 22.7996C39.2635 22.7996 39.2744 21.7243 39.2679 21.1703C39.2614 20.9683 39.3025 20.8271 39.3976 20.7315C39.5209 20.6033 39.7047 20.5881 39.8322 20.5881L42.5373 20.5968L42.5392 20.5968C42.8641 20.5925 42.9225 20.5917 43.0887 20.1775C43.4347 19.0588 43.426 18.255 43.0563 17.3187C41.8086 14.1601 37.9424 4.13454 37.9424 4.13454L40.6929 4.12803C41.0756 4.12803 41.294 4.28444 41.4237 4.65374C42.0326 6.38878 43.0694 9.21592 43.9063 11.498L43.9076 11.5014C44.4344 12.938 44.8819 14.1582 45.0932 14.7531C45.2818 14.2115 45.662 13.1516 46.1152 11.8881L46.1154 11.8876L46.1158 11.8864C46.9768 9.4858 48.1011 6.35113 48.6762 4.64071C48.7994 4.27358 48.9941 4.12586 49.3487 4.12586L52.1576 4.13454C52.1576 4.13454 46.6544 18.722 45.1192 22.88C45.0089 23.1776 44.8402 23.4513 44.3537 23.4513H44.3364L44.3342 23.4535Z" fill="#F3F0EE"/>
<path d="M37.0104 18.5461V11.7053L37.0082 11.7075C37.0082 11.1902 37.0077 10.4699 37.0071 9.63675V9.63309C37.0049 6.71215 37.0017 2.40649 37.0169 0.593596C37.0212 0.163466 36.885 0.0200891 36.4633 0.0374681C35.7951 0.0352957 35.1918 0.0352957 34.5194 0.0374681C34.1323 0.0396405 33.9701 0.150432 33.9701 0.563183C33.9809 5.27724 33.9788 14.1123 33.9701 18.8263C33.9701 19.1913 34.1042 19.3086 34.4502 19.2999C34.868 19.2878 35.2869 19.2905 35.7054 19.2932C35.8846 19.2944 36.0638 19.2956 36.2427 19.2956C36.7545 19.2941 37.0104 19.0443 37.0104 18.5461Z" fill="#F3F0EE"/>
<path d="M20.3648 4.53428C20.3648 4.31922 20.5399 4.14543 20.754 4.14543H32.3571C32.5711 4.14543 32.7441 4.31704 32.7441 4.53211C32.7311 8.97462 32.7311 14.5033 32.7441 18.9111C32.7441 19.1261 32.5711 19.2977 32.3571 19.2977H30.0412C29.8271 19.2977 29.6541 19.1261 29.6541 18.9111C29.6637 16.1531 29.6631 10.482 29.6629 8.05175L29.6628 7.29102C29.6628 7.07596 29.4898 6.90434 29.2757 6.90434H23.7748C23.5628 6.90434 23.3899 7.07596 23.3899 7.28885V18.9132C23.3899 19.1283 23.2169 19.2999 23.005 19.2999H20.7518C20.5377 19.2999 20.3626 19.1261 20.3648 18.9089V4.53428Z" fill="#F3F0EE"/>
<path fill-rule="evenodd" clip-rule="evenodd" d="M0.112235 9.75886C0.0927736 15.1659 4.29635 19.4281 9.65678 19.4368C15.0821 19.4455 19.2467 15.2637 19.2575 9.79144C19.2684 4.44306 15.0799 0.232993 9.73679 0.219959C4.36338 0.206925 0.131696 4.40395 0.112235 9.75886ZM9.80814 16.3542C6.1884 16.3759 3.36439 13.5149 3.34925 9.80665C3.33411 6.2092 6.15596 3.30473 9.68705 3.28953C13.1835 3.27432 16.0465 6.18747 16.0681 9.78493C16.0897 13.3433 13.2398 16.3325 9.80814 16.3542Z" fill="#F3F0EE"/>
</g>
<defs>
<clipPath id="clip0_7611_109">
<rect width="108.117" height="23.4312" fill="white" transform="translate(0.112274 0.0222807)"/>
</clipPath>
</defs>
</svg>
