<svg width="78" height="78" viewBox="0 0 78 78" fill="none" xmlns="http://www.w3.org/2000/svg">
<g id="Logos/Symbol">
<g id="vector">
<path d="M29.535 76.8092C22.5567 75.0824 16.5547 71.6288 11.4927 66.5924C6.93696 62.0595 3.71899 56.7353 1.83883 50.6196C-0.475209 43.1368 -0.655993 35.5462 1.58573 28.0634C5.20143 15.7961 13.0475 7.23408 24.9431 2.41347C25.9899 2.00591 27.0654 1.6696 28.1424 1.3328C28.7767 1.13447 29.4114 0.935976 30.0412 0.722656C30.0593 0.776618 30.0683 0.821587 30.0774 0.866555C30.0864 0.911523 30.0955 0.956492 30.1135 1.01045C22.2313 7.4859 23.0991 17.5948 28.8119 23.063C34.4162 28.4232 43.1662 28.4232 48.7705 23.2428C54.6641 17.7747 55.4234 6.40666 47.4327 0.758631C47.6868 0.826958 47.9409 0.893986 48.1947 0.96095C49.2774 1.24656 50.3555 1.53098 51.41 1.90982C62.257 5.83107 70.1392 12.99 74.6588 23.4946C79.0338 33.5316 79.1061 43.8204 74.9119 53.9652C70.8985 63.7144 63.8841 70.6935 54.194 74.9025C52.2416 75.7659 50.2891 76.4135 48.3366 76.9171L47.5773 76.7372L56.038 58.1743L44.1063 71.9166L38.972 32.6322L33.44 71.9166L21.9782 58.1743L30.1497 76.7372L29.6435 76.8452C29.6073 76.8092 29.5712 76.8092 29.535 76.8092Z" fill="#F3F0EE"/>
<path d="M39.8036 20.0771C40.2736 16.8034 42.8769 14.1772 46.2034 13.7095C47.035 13.5656 47.035 12.3425 46.2034 12.2346C42.9131 11.7669 40.2736 9.17671 39.8036 5.86704C39.6951 5.00365 38.4296 5.00365 38.3212 5.86704C37.8511 9.14074 35.2478 11.7669 31.9214 12.2346C31.0536 12.3425 31.0536 13.6016 31.9214 13.7095C35.2117 14.1772 37.8511 16.7674 38.3212 20.0771C38.4296 20.9404 39.6951 20.9404 39.8036 20.0771Z" fill="#F3F0EE"/>
</g>
</g>
</svg>
